<svg width="14" height="13" viewBox="0 0 14 13" fill="none" xmlns="http://www.w3.org/2000/svg">
<path d="M12.5508 3.81641C13.0977 3.40625 13.5898 2.91406 13.9727 2.33984C13.4805 2.55859 12.9062 2.72266 12.332 2.77734C12.9336 2.42188 13.3711 1.875 13.5898 1.19141C13.043 1.51953 12.4141 1.76562 11.7852 1.90234C11.2383 1.32812 10.5 1 9.67969 1C8.09375 1 6.80859 2.28516 6.80859 3.87109C6.80859 4.08984 6.83594 4.30859 6.89062 4.52734C4.51172 4.39062 2.37891 3.24219 0.957031 1.51953C0.710938 1.92969 0.574219 2.42188 0.574219 2.96875C0.574219 3.95312 1.06641 4.82812 1.85938 5.34766C1.39453 5.32031 0.929688 5.21094 0.546875 4.99219V5.01953C0.546875 6.41406 1.53125 7.5625 2.84375 7.83594C2.625 7.89062 2.35156 7.94531 2.10547 7.94531C1.91406 7.94531 1.75 7.91797 1.55859 7.89062C1.91406 9.03906 2.98047 9.85938 4.23828 9.88672C3.25391 10.6523 2.02344 11.1172 0.683594 11.1172C0.4375 11.1172 0.21875 11.0898 0 11.0625C1.25781 11.8828 2.76172 12.3477 4.40234 12.3477C9.67969 12.3477 12.5508 8 12.5508 4.19922C12.5508 4.0625 12.5508 3.95312 12.5508 3.81641Z" fill="white"/>
</svg>
