<svg width="14" height="13" viewBox="0 0 14 13" fill="none" xmlns="http://www.w3.org/2000/svg">
<path d="M3.73438 13H1.19141V4.82422H3.73438V13ZM2.44922 3.73047C1.65625 3.73047 1 3.04688 1 2.22656C1 1.43359 1.65625 0.777344 2.44922 0.777344C3.26953 0.777344 3.92578 1.43359 3.92578 2.22656C3.92578 3.04688 3.26953 3.73047 2.44922 3.73047ZM13.2227 13H10.707V9.03516C10.707 8.07812 10.6797 6.875 9.36719 6.875C8.05469 6.875 7.86328 7.88672 7.86328 8.95312V13H5.32031V4.82422H7.75391V5.94531H7.78125C8.13672 5.31641 8.95703 4.63281 10.1875 4.63281C12.7578 4.63281 13.25 6.32812 13.25 8.51562V13H13.2227Z" fill="white"/>
</svg>
